<?xml version="1.0" standalone="no"?>
<!DOCTYPE svg PUBLIC "-//W3C//DTD SVG 20010904//EN"
 "http://www.w3.org/TR/2001/REC-SVG-20010904/DTD/svg10.dtd">
<svg version="1.0" xmlns="http://www.w3.org/2000/svg"
 width="480.000000pt" height="480.000000pt" viewBox="0 0 480.000000 480.000000"
 preserveAspectRatio="xMidYMid meet">
<metadata>
Created by potrace 1.14, written by Peter Selinger 2001-2017
</metadata>
<g transform="translate(0.000000,480.000000) scale(0.100000,-0.100000)"
fill="#000000" stroke="none">
<path d="M2109 4746 c-2 -2 -29 -7 -59 -10 -120 -14 -137 -17 -190 -27 -240
-47 -486 -141 -720 -275 -369 -210 -709 -574 -893 -954 -106 -219 -188 -465
-212 -635 -3 -22 -8 -46 -10 -53 -19 -55 -28 -496 -13 -615 37 -288 99 -498
223 -752 156 -320 387 -606 659 -817 113 -87 314 -212 436 -270 187 -89 438
-165 640 -194 19 -2 44 -6 55 -9 11 -2 61 -7 110 -11 238 -20 509 3 740 63 33
8 67 16 75 18 131 27 452 175 620 285 270 178 477 383 654 649 254 381 376
769 378 1201 1 141 -6 253 -21 335 -4 25 -8 -17 -9 -115 -1 -175 -9 -269 -28
-375 -2 -11 -7 -40 -10 -65 -11 -86 -63 -289 -99 -387 -75 -200 -204 -444
-308 -582 -59 -78 -235 -278 -269 -305 -13 -11 -52 -45 -88 -76 -168 -147
-447 -313 -640 -380 -19 -7 -44 -16 -55 -20 -21 -9 -186 -57 -223 -65 -169
-37 -209 -43 -352 -52 -158 -9 -350 -4 -440 12 -14 2 -47 7 -74 10 -144 17
-450 117 -616 200 -129 64 -316 181 -385 241 -16 14 -55 47 -85 72 -330 282
-584 697 -685 1122 -29 123 -50 246 -60 350 -6 63 -6 320 -1 365 2 17 7 57 11
90 4 33 9 63 11 66 1 3 6 28 10 55 9 72 61 266 96 364 68 188 211 441 347 615
84 106 276 296 377 371 334 250 743 414 1124 450 99 10 346 11 437 2 395 -39
807 -189 1128 -413 79 -55 97 -64 60 -29 -122 117 -332 259 -502 339 -177 84
-437 167 -598 190 -22 4 -51 9 -65 12 -30 6 -475 15 -481 9z"/>
<path d="M4149 3931 c-1 -9 -2 -70 -3 -136 l-1 -120 -132 0 c-73 -1 -135 -4
-139 -7 -12 -12 -10 -300 2 -305 7 -2 70 -5 140 -6 l129 -2 0 -133 c0 -80 4
-132 10 -133 6 -1 76 -2 158 -3 l147 -1 0 137 0 138 131 -1 c71 -1 133 2 137
5 3 4 7 74 7 156 0 125 -2 149 -15 152 -8 2 -70 3 -137 3 l-123 -1 0 138 0
137 -155 -1 c-135 -1 -155 -3 -156 -17z"/>
<path d="M1871 3921 c-6 -4 24 -18 66 -31 80 -24 133 -47 168 -74 18 -13 9
-15 -100 -15 -144 -1 -192 -6 -292 -32 -251 -64 -494 -238 -672 -483 -62 -85
-142 -219 -181 -301 -70 -152 -115 -449 -97 -650 15 -181 60 -316 137 -419 24
-31 41 -58 39 -59 -2 -1 -25 -12 -50 -24 -161 -75 -92 -367 126 -530 88 -66
166 -89 216 -63 10 6 26 24 34 40 l16 30 109 -109 c216 -215 503 -370 735
-397 77 -9 254 -10 327 -1 328 38 633 201 825 441 32 39 59 73 61 76 1 2 29
-10 61 -28 108 -59 195 -50 270 29 114 121 154 410 75 546 -22 38 -23 44 -10
75 26 62 39 167 40 318 0 104 -9 269 -18 316 -2 11 -7 42 -10 69 -4 28 -9 57
-11 65 -2 8 -7 29 -10 45 -63 363 -172 598 -314 678 l-44 25 46 7 c26 4 58 4
71 1 44 -11 37 10 -26 73 -108 109 -249 190 -362 209 -57 9 -203 8 -250 -2
l-39 -9 19 33 c11 18 42 45 69 61 l50 29 -70 0 c-78 0 -174 -18 -269 -50 l-63
-22 -79 41 c-75 38 -181 72 -269 86 -58 10 -310 14 -324 6z m566 -1044 c-7
-111 -33 -197 -85 -276 -20 -31 -40 -61 -44 -67 -10 -15 201 28 299 62 88 29
234 100 302 146 45 31 125 95 189 153 49 44 62 49 63 28 1 -39 9 -75 39 -189
30 -112 95 -272 107 -260 3 2 6 20 8 38 4 65 17 138 24 142 12 8 45 -99 55
-181 3 -24 8 -61 11 -82 3 -22 8 -110 10 -196 2 -86 6 -164 9 -173 7 -26 19
-189 19 -262 1 -94 -11 -176 -39 -272 -9 -31 12 -19 28 15 9 19 33 90 53 158
48 161 69 204 107 222 41 20 65 11 93 -32 69 -106 49 -353 -38 -468 -35 -45
-82 -73 -125 -73 -34 0 -105 32 -144 65 -16 14 -35 25 -42 25 -7 0 -34 -30
-61 -67 -177 -242 -468 -416 -785 -469 -56 -10 -286 -11 -360 -3 -266 32 -616
249 -812 507 -24 30 -48 52 -59 52 -11 0 -19 -3 -20 -7 -1 -8 -3 -20 -14 -79
-11 -61 -65 -61 -155 -1 -178 120 -268 338 -178 434 26 28 78 31 100 6 8 -10
45 -66 82 -125 37 -60 72 -108 77 -108 10 0 5 35 -11 80 -12 34 -48 176 -70
280 -57 268 10 479 211 662 125 114 219 170 416 246 l101 40 10 -42 c16 -63 7
-155 -23 -259 -9 -32 -15 -61 -12 -63 6 -6 163 76 229 120 74 48 228 178 398
333 19 18 37 33 39 33 2 0 1 -42 -2 -93z"/>
<path d="M2727 2525 c-71 -14 -84 -26 -70 -58 11 -23 14 -24 97 -20 169 9 256
-27 403 -167 23 -22 49 -40 58 -40 50 0 77 52 50 98 -19 31 -121 110 -180 140
-101 50 -248 69 -358 47z"/>
<path d="M1535 2418 c-117 -15 -211 -58 -295 -134 -49 -45 -100 -123 -100
-156 0 -54 74 -79 105 -35 9 12 29 43 45 69 71 115 212 178 407 182 l68 1 0
29 c0 24 -5 31 -27 37 -46 12 -141 15 -203 7z"/>
<path d="M2864 2121 c-55 -22 -78 -40 -98 -78 -50 -97 24 -243 123 -243 94 0
199 85 215 175 10 54 -50 137 -107 150 -58 12 -97 11 -133 -4z m44 -93 c34
-34 -1 -97 -45 -81 -51 19 -42 93 12 93 12 0 26 -5 33 -12z"/>
<path d="M1555 2051 c-59 -27 -78 -53 -83 -115 -9 -105 56 -176 168 -184 143
-10 231 108 170 228 -30 59 -71 83 -149 86 -48 3 -77 -1 -106 -15z m153 -53
c29 -36 9 -88 -32 -88 -44 0 -61 47 -29 82 19 21 46 23 61 6z"/>
<path d="M2634 1609 c-65 -54 -150 -96 -242 -120 -128 -33 -251 -22 -412 36
-120 43 -111 44 -104 -11 7 -65 49 -168 91 -226 43 -60 91 -101 156 -135 48
-25 61 -28 167 -28 101 0 121 3 164 24 98 49 182 164 215 296 16 61 29 205 20
205 -4 0 -29 -18 -55 -41z"/>
</g>
</svg>
