<?xml version="1.0" encoding="UTF-8" standalone="no"?>
<!-- Created with Inkscape (http://www.inkscape.org/) -->

<svg
   width="51.814869mm"
   height="50.694942mm"
   viewBox="0 0 51.814869 50.694942"
   version="1.1"
   id="svg1"
   xml:space="preserve"
   xmlns:inkscape="http://www.inkscape.org/namespaces/inkscape"
   xmlns:sodipodi="http://sodipodi.sourceforge.net/DTD/sodipodi-0.dtd"
   xmlns:xlink="http://www.w3.org/1999/xlink"
   xmlns="http://www.w3.org/2000/svg"
   xmlns:svg="http://www.w3.org/2000/svg"><sodipodi:namedview
     id="namedview1"
     pagecolor="#000000"
     bordercolor="#000000"
     borderopacity="0.25"
     inkscape:showpageshadow="2"
     inkscape:pageopacity="0.0"
     inkscape:pagecheckerboard="0"
     inkscape:deskcolor="#d1d1d1"
     inkscape:document-units="mm" /><g
     id="g1"
     inkscape:groupmode="layer"
     inkscape:label="1"
     transform="matrix(0.26458333,0,0,0.26458333,4.9379573e-6,0)"><path
       id="path1"
       d="m 115.8395,123.8457 c -0.5145,0.7682 -1.2359,1.2943 -1.9706,1.9114 -8.9468,7.516 -17.2321,11.5251 -28.3703,14.3305 -4.553,1.1466 -9.0491,1.6138 -13.9139,1.6138 -2.6521,0 -5.2356,0.0263 -7.4979,-0.2662 -2.3139,-0.299 -4.5544,-0.4961 -6.8287,-0.9354 -10.1899,-1.9698 -16.461,-4.9184 -24.9519,-9.9851 -2.3789,-1.419 -4.6707,-3.2244 -6.7918,-5.0091 l -3.0357,-2.7093 c -0.4382,-0.4434 -0.6499,-0.5463 -1.087,-0.9312 -2.0452,-1.8008 -5.4587,-6.0715 -7.2394,-8.2882 C 13.566,112.8472 13.07,112.1338 12.515,111.3327 10.9001,109.0026 9.3929,106.619 8.1269,104.0751 4.2644,96.317 1.8811,89.4994 0.5734,80.5751 0.0771,77.1871 9e-4,73.0757 3e-4,69.503 -3e-4,61.2326 2.1393,51.0633 5.3824,43.8313 c 1.2121,-2.7031 2.355,-5.368 3.8858,-7.9146 3.1898,-5.3068 4.3497,-6.6325 8.0339,-11.3755 l 1.8346,-2.0466 c 2.2008,-2.3794 4.5621,-4.4512 6.999,-6.5103 0.3872,-0.3274 0.7129,-0.5814 1.1262,-0.8921 0.7957,-0.5984 1.3964,-1.1313 2.2093,-1.6724 C 35.6403,9.3121 40.1128,6.5891 47.3009,4.0762 51.4026,2.6425 55.315,1.6778 59.6945,0.942 c 4.8719,-0.8184 9.6302,-1.1163 14.686,-0.8434 7.8081,0.4216 18.3473,2.6629 25.1564,6.0546 4.1102,2.0471 6.0514,2.8428 10.029,5.498 0.8441,0.5633 1.4867,0.9899 2.3023,1.5798 2.601,1.8819 5.0252,3.9708 7.425,6.0837 4.1202,3.6278 8.4804,9.4612 11.4234,14.0411 1.0386,1.6166 1.7926,3.3231 2.7946,4.9689 1.967,3.2289 4.4314,10.2926 5.3737,14.0352 0.5303,2.1072 0.9981,4.2585 1.3079,6.4556 0.3121,2.215 0.6525,4.6808 0.6471,7.1161 l 0.003,5.7487 c 0.009,2.2416 -0.4867,5.6783 -0.9002,7.9497 -0.1443,0.7903 0.178,0.3577 -0.3456,0.7413 0.7115,-3.0546 0.2588,-11.1904 -0.1097,-14.0196 -0.8745,-6.7215 -1.6421,-11.3715 -4.1479,-17.8997 l -1.6413,-3.9489 c -0.2075,-0.4655 -0.3226,-0.8019 -0.57,-1.2929 -0.8524,-1.6909 -1.5906,-3.1776 -2.484,-4.8135 -1.7297,-3.1674 -3.7077,-6.0233 -5.9338,-8.8175 l -3.4778,-3.9753 c -0.9085,-0.9031 -1.6489,-1.9581 -2.6442,-2.7901 -3.9631,-3.3123 -4.3455,-4.1117 -9.2401,-7.3741 C 104.7546,12.3775 99.7506,9.6999 94.5094,7.9191 88.8902,6.01 82.4822,4.4634 76.2437,4.1355 74.0738,4.0218 71.0887,3.8154 69.0579,4.0941 L 65.683,4.2905 c -6.5628,0.2815 -15.0106,2.8018 -20.6943,5.237 -2.5952,1.1121 -4.9216,2.295 -7.3044,3.7202 -3.031,1.8136 -6.0548,3.7196 -8.6864,6.0645 -2.0135,1.794 -5.0072,4.1558 -6.66,6.2274 l -2.5824,3.0078 c -1.7226,1.9749 -3.3202,4.2132 -4.7234,6.4562 -0.4966,0.7946 -0.9552,1.4851 -1.4147,2.3114 -5.3714,9.6534 -7.0521,15.4168 -8.6967,26.2392 -0.0766,0.5057 -0.0604,1.0737 -0.1301,1.7328 -0.4505,4.2537 -0.4218,9.6247 0.206,13.9705 1.0026,6.9361 2.6969,13.9357 5.7206,20.054 l 2.5299,4.9232 c 2.1776,3.8923 4.7733,7.5065 7.6068,10.8703 1.1755,1.3958 2.403,2.488 3.6411,3.8124 2.3664,2.531 5.1214,4.7922 7.958,6.7926 10.3297,7.2853 22.5,12.0365 35.4042,12.7313 0.6023,0.0326 1.2622,-0.0338 1.8649,-0.002 0.703,0.038 0.8487,0.1605 1.7019,0.1616 4.6687,0.006 9.6316,-0.4592 13.5292,-1.2331 7.5722,-1.5032 15.1067,-3.9412 21.7318,-7.7706 l 4.6828,-2.7706 c 0.5826,-0.3906 3.8999,-2.8286 4.4717,-2.9814"
       style="fill:#231f20 icc-color(ISO-Coated-v2-ECI, 0, 0, 0, 1);fill-opacity:1;fill-rule:evenodd;stroke:none"
       transform="matrix(1.3333333,0,0,-1.3333333,0,188.93627)" /><path
       id="path2"
       d="m 126.8646,108.7849 h -8.0748 c -0.3577,0 -0.466,-0.108 -0.466,-0.4657 v -9.1605 h 8.5408 v -8.3846 h 9.627 v 8.3846 h 8.3852 v 9.6262 h -8.3852 v 8.3843 h -9.627 z"
       style="fill:#231f20 icc-color(ISO-Coated-v2-ECI, 0, 0, 0, 1);fill-opacity:1;fill-rule:evenodd;stroke:none"
       transform="matrix(1.3333333,0,0,-1.3333333,0,188.93627)" /><path
       id="path3"
       d="m 113.3549,55.2186 0.4658,-0.3107 m -0.4658,0.3107 -0.155,0.1551 z m -0.155,0.1551 -0.1554,0.1553 z m -0.6214,0.466 0.466,-0.3107 m -0.466,0.3107 0.0465,-0.0465 c -0.003,0.0031 -0.0621,0.0309 -0.0465,0.0465 z m -0.3104,0.1553 0.0462,-0.0465 c -0.003,0.0032 -0.0618,0.0309 -0.0462,0.0465 z m -10.8697,15.8369 c 0,1.3113 -0.0405,2.0979 0.1933,3.2227 0.1911,0.9213 0.4278,1.7875 0.4278,2.9877 1.5619,-1.144 2.5001,-10.1066 2.4879,-13.0385 -0.003,-0.8821 -0.003,-1.7643 -0.007,-2.6467 -0.0141,-3.513 0.9332,-8.1867 0.9355,-12.1071 0.003,-4.7965 -1.3728,-8.0498 -1.3975,-9.1607 1.9879,1.3312 3.1895,10.5361 5.0822,12.4634 3.1403,3.1963 6.2175,-2.6943 4.4535,-10.3533 -1.0938,-4.7494 -4.2117,-8.9172 -9.4461,-5.2809 -0.6968,0.4839 -1.2583,1.2651 -2.1084,1.4632 -0.9961,-0.6672 -1.52,-1.9329 -2.6881,-3.3678 -0.9732,-1.1959 -1.8666,-2.1864 -2.9393,-3.2715 -1.8164,-1.8368 -4.9685,-4.0467 -7.1535,-5.2684 -7.3933,-4.1341 -15.4318,-5.9236 -25.2385,-4.5264 -6.7394,0.9598 -15.1336,6.311 -19.9389,11.1161 -1.0763,1.0763 -2.0415,1.9961 -3.0014,3.2096 -1.7178,2.1725 -1.8408,3.0569 -3.1711,2.4188 -0.4249,-1.8244 0.4315,-6.6685 -6.0352,-1.8428 -2.1291,1.5888 -4.3886,4.3107 -5.2039,6.9075 -2.0046,6.3847 2.791,7.689 3.9566,5.6642 l 3.4617,-5.5443 c 0.4269,-0.6472 0.8221,-1.2592 1.4916,-1.6138 -0.0397,0.478 -2.7318,9.8221 -3.2349,13.3787 -0.3359,2.3726 -0.2872,5.5069 0.1928,7.674 0.5139,2.3201 1.3464,3.9395 2.5256,5.8589 1.7017,2.7694 3.8503,4.3642 6.0662,6.3555 0.4544,0.4082 0.6774,0.5196 1.1514,0.8674 0.4615,0.3385 0.7455,0.5953 1.266,0.908 2.8748,1.7283 5.2531,2.9837 8.5118,4.0654 1.0194,0.3385 2.088,0.8734 3.0864,1.1061 0.0811,-0.9728 0.4595,-1.5786 0.4722,-2.7887 0.0454,-4.2965 -0.7874,-5.0786 -1.559,-8.3906 0.784,0.0655 5.1018,2.3967 5.9309,2.9197 3.6819,2.3241 5.667,4.1508 8.7029,6.8247 l 6.0183,5.3164 c 0,-5.0998 -0.4142,-8.4705 -3.327,-12.3551 -0.3453,-0.4603 -0.7512,-0.9059 -1.0205,-1.3082 1.3592,0.0303 6.7578,1.2892 7.9761,1.6509 2.607,0.7739 4.7356,1.677 6.9823,2.8001 6.3953,3.1963 9.8779,7.537 11.2836,8.2808 0.0482,-2.154 1.999,-9.3631 2.9523,-11.4879 0.3566,-0.7949 1.2549,-2.6626 1.8615,-3.1071 z m 12.4223,-16.924 c 0.7769,0.8938 1.4241,5.0553 1.5276,6.0806 0.9668,9.584 -1.4658,24.1061 -4.9196,32.76 -1.1211,2.8092 -4.1105,7.4929 -7.1671,8.2049 v 0.3104 c 0.7554,0.017 1.5741,0.2874 2.3346,0.3178 0.633,0.0252 1.8054,-0.1967 2.3239,-0.3178 -0.0936,0.3518 -1.4032,1.7938 -1.7439,2.1379 -1.9619,1.9845 -4.3396,3.854 -6.8474,5.1086 -3.5906,1.7963 -7.4293,2.3139 -11.5982,1.607 -0.6429,-0.1092 -1.0437,-0.2988 -1.7051,-0.3138 0.3887,1.6679 2.3434,3.0211 4.0377,3.416 -0.0326,0.0204 -0.0862,0.0839 -0.1026,0.0527 l -0.843,0.2441 c -0.3629,0.0388 -0.8524,0.0159 -1.2277,0.0147 -5.2007,-0.0167 -9.5077,-2.3258 -10.2206,-2.2311 l -3.2672,1.7867 c -1.8964,0.7732 -1.5619,0.716 -3.6595,1.3093 -3.7713,1.0672 -7.3976,1.2084 -11.4313,1.1585 -0.9207,-0.0113 -1.3944,-0.1613 -2.4781,-0.1613 0.296,-0.4042 0.3263,-0.305 0.9065,-0.491 l 3.4215,-1.0814 c 0.7965,-0.2636 1.3444,-0.4461 2.0882,-0.8617 0.819,-0.4578 1.1708,-0.7336 1.8137,-1.2923 -2.1955,0 -4.5017,0.0697 -6.6822,0.005 -5.1871,-0.1539 -11.2042,-2.346 -15.1211,-4.9093 -1.4556,-0.9528 -2.5378,-1.7428 -3.886,-2.7913 C 34.9393,101.5214 31.5836,96.965 28.6991,92.2 27.6049,90.3926 26.0124,87.4293 25.3675,85.4391 24.609,83.0968 23.2843,76.405 23.2909,74.0072 c 0.0076,-2.8661 -0.2668,-2.482 0.0116,-6.3578 0.214,-2.9863 1.3677,-8.1057 2.7898,-10.5628 0.8241,-1.4229 2.001,-2.5506 2.7902,-4.0419 -5.5307,-0.46 -5.692,-7.5761 -1.5976,-13.087 1.5542,-2.0922 6.2535,-6.4091 9.2486,-5.9079 0.8371,0.1403 1.2285,0.2891 1.7147,0.7803 0.3979,0.402 0.8263,1.0775 0.8827,1.7567 0.6278,-0.1678 0.4056,-0.1882 0.7591,-0.6384 l 2.1526,-2.3505 c 0.5292,-0.5295 0.9482,-0.9439 1.4749,-1.4754 0.559,-0.5641 0.9782,-0.8612 1.5534,-1.3966 3.1481,-2.9313 11.1004,-7.5992 15.0553,-8.7018 6.4868,-1.8085 14.4406,-1.6501 21.0549,0.1539 4.9312,1.3447 9.7713,3.888 13.7852,7.0217 0.3308,0.2579 0.5556,0.4368 0.8654,0.6871 0.326,0.2633 0.4734,0.4799 0.7991,0.754 0.3399,0.2855 0.428,0.2937 0.7724,0.6248 1.4735,1.4184 3.9436,4.2219 4.7716,5.7872 1.0723,-0.2866 5.4011,-4.9 9.9777,-0.3507 2.4454,2.4313 3.7006,6.8066 3.6876,10.5974 -0.008,2.2623 -0.2118,4.1754 -1.0868,6.0565 -0.2659,0.5717 -0.8,1.0559 -0.9326,1.5519"
       style="fill:#231f20 icc-color(ISO-Coated-v2-ECI, 0, 0, 0, 1);fill-opacity:1;fill-rule:evenodd;stroke:none"
       transform="matrix(1.3333333,0,0,-1.3333333,0,188.93627)" /><path
       id="path4"
       d="m 69.1002,41.3997 c -3.6981,0 -7.2556,1.0398 -10.4925,2.3959 -0.447,0.187 -0.9261,0.3707 -1.3087,0.5541 0,-6.3501 5.0312,-13.663 11.9565,-13.663 2.7286,0 4.7852,0.0686 7.0826,1.6124 4.4862,3.0141 6.1161,8.9022 6.1161,14.8459 -0.4434,-0.1188 -1.5849,-1.3385 -2.5713,-2.0869 -3.022,-2.2927 -6.9327,-3.6584 -10.7827,-3.6584"
       style="fill:#231f20 icc-color(ISO-Coated-v2-ECI, 0, 0, 0, 1);fill-opacity:1;fill-rule:evenodd;stroke:none"
       transform="matrix(1.3333333,0,0,-1.3333333,0,188.93627)" /><path
       id="path5"
       d="m 49.8455,56.3054 c 0,1.8771 2.9501,2.4183 2.9501,-0.3104 0,-1.3461 -2.9501,-1.7711 -2.9501,0.3104 z m -4.9691,-0.9317 c 0,-3.2542 2.232,-5.2132 5.4113,-5.4678 3.1479,-0.252 5.7688,1.861 5.7688,4.847 0,2.5554 -2.2708,4.9683 -4.8135,4.9683 h -1.2424 c -2.7312,0 -5.1242,-1.656 -5.1242,-4.3475"
       style="fill:#231f20 icc-color(ISO-Coated-v2-ECI, 0, 0, 0, 1);fill-opacity:1;fill-rule:evenodd;stroke:none"
       transform="matrix(1.3333333,0,0,-1.3333333,0,188.93627)" /><path
       id="path6"
       d="m 86.4916,57.3922 c 0,1.7272 2.9503,2.3134 2.9503,-0.1553 0,-1.9585 -2.9503,-1.7155 -2.9503,0.1553 z m 8.5405,0 c 0,1.4848 -0.7433,2.3726 -1.5951,3.0631 -3.9484,3.2015 -10.8292,0.1764 -9.1057,-5.3787 2.1776,-7.0206 10.7008,-2.262 10.7008,2.3156"
       style="fill:#231f20 icc-color(ISO-Coated-v2-ECI, 0, 0, 0, 1);fill-opacity:1;fill-rule:evenodd;stroke:none"
       transform="matrix(1.3333333,0,0,-1.3333333,0,188.93627)" /><path
       id="path7"
       d="m 36.6466,59.7212 c 2.6161,0 1.2634,2.7388 5.631,5.8589 2.3587,1.6849 5.7127,2.5254 8.6547,2.5254 0.6302,0 3.2607,-0.7135 3.2607,0.9317 0,1.1044 -0.7704,1.1614 -1.7912,1.3139 -5.0088,0.7495 -9.765,-0.2665 -13.3625,-3.0852 -1.2912,-1.0114 -4.4144,-4.1494 -4.1709,-5.9151 0.1242,-0.9003 0.8748,-1.6296 1.7782,-1.6296"
       style="fill:#231f20 icc-color(ISO-Coated-v2-ECI, 0, 0, 0, 1);fill-opacity:1;fill-rule:evenodd;stroke:none"
       transform="matrix(1.3333333,0,0,-1.3333333,0,188.93627)" /><path
       id="path8"
       d="m 81.6778,71.2108 c 4.3733,0 6.4621,0.976 11.4842,-2.0248 l 2.5739,-2.0846 c 0.375,-0.4056 0.7673,-0.8189 1.0899,-1.2387 1.052,-1.3697 3.4858,-1.2852 3.4858,1.156 0,1.5361 -3.9402,4.1448 -5.2296,4.8631 -3.5791,1.9936 -8.5235,2.7176 -12.7477,1.6228 -1.9965,-0.5176 -1.0358,-1.7274 -0.6565,-2.2938"
       style="fill:#231f20 icc-color(ISO-Coated-v2-ECI, 0, 0, 0, 1);fill-opacity:1;fill-rule:evenodd;stroke:none"
       transform="matrix(1.3333333,0,0,-1.3333333,0,188.93627)" /><path
       id="path9"
       d="m 101.3984,71.8319 v -0.1553 l 0.1811,0.1295 z"
       style="fill:#231f20 icc-color(ISO-Coated-v2-ECI, 0, 0, 0, 1);fill-opacity:1;fill-rule:evenodd;stroke:none"
       transform="matrix(1.3333333,0,0,-1.3333333,0,188.93627)" /></g></svg>
